<svg fill="none" height="15" viewBox="0 0 15 15" width="15" xmlns="http://www.w3.org/2000/svg"><path d="m10.5 14.4909v.5h.5v-.5zm-10 0h-.5v.5h.5zm14 .0091v.5h.5v-.5zm-6.5-11.00196c0 1.37947-1.11883 2.49805-2.5 2.49805v1c1.93283 0 3.5-1.56568 3.5-3.49805zm-2.5 2.49805c-1.38117 0-2.5-1.11858-2.5-2.49805h-1c0 1.93237 1.56717 3.49805 3.5 3.49805zm-2.5-2.49805c0-1.37947 1.11883-2.49804 2.5-2.49804v-1c-1.93283 0-3.5 1.56567-3.5 3.49804zm2.5-2.49804c1.38117 0 2.5 1.11857 2.5 2.49804h1c0-1.93237-1.56717-3.49804-3.5-3.49804zm5 12.9909h-10v1h10zm-9.5.5c0-.0014 0-.0028 0-.0042s0-.0028 0-.0041c0-.0014 0-.0028 0-.0042s0-.0028 0-.0042c0-.0013 0-.0027 0-.0041s0-.0028 0-.0042 0-.0027 0-.0041 0-.0028 0-.0042 0-.0027 0-.0041 0-.0028 0-.0042 0-.0028 0-.0041c0-.0014 0-.0028 0-.0042s0-.0028 0-.0041c0-.0014 0-.0028 0-.0042s0-.0028 0-.0041c0-.0014 0-.0028 0-.0042s0-.0027 0-.0041 0-.0028 0-.0042 0-.0027 0-.0041 0-.0028 0-.0042c0-.0013 0-.0027 0-.0041s0-.0028 0-.0042c0-.0013 0-.0027 0-.0041s0-.0028 0-.0041c0-.0014 0-.0028 0-.0042s0-.0027 0-.0041 0-.0028 0-.0042c0-.0013 0-.0027 0-.0041s0-.0028 0-.0041c0-.0014 0-.0028 0-.0042 0-.0013 0-.0027 0-.0041s0-.0028 0-.0041c0-.0014 0-.0028 0-.0042s0-.0027 0-.0041 0-.0028 0-.0041c0-.0014 0-.0028 0-.0042 0-.0013 0-.0027 0-.0041s0-.0028 0-.0041c0-.0014 0-.0028 0-.0042 0-.0013 0-.0027 0-.0041s0-.0027 0-.0041 0-.0028 0-.0041c0-.0014 0-.0028 0-.0042 0-.0013 0-.0027 0-.0041s0-.0027 0-.0041 0-.0028 0-.0041c0-.0014 0-.0028 0-.0042 0-.0013 0-.0027 0-.0041s0-.0027 0-.0041 0-.0028 0-.0041c0-.0014 0-.0028 0-.0041 0-.0014 0-.0028 0-.0042 0-.0013 0-.0027 0-.0041 0-.0013 0-.0027 0-.0041s0-.0027 0-.0041 0-.0028 0-.0041c0-.0014 0-.0028 0-.0041 0-.0014 0-.0028 0-.0042 0-.0013 0-.0027 0-.0041 0-.0013 0-.0027 0-.0041 0-.0013 0-.0027 0-.0041s0-.0027 0-.0041 0-.0027 0-.0041 0-.0027 0-.0041 0-.0027 0-.0041 0-.0028 0-.0041c0-.0014 0-.0028 0-.0041 0-.0014 0-.0028 0-.0041 0-.0014 0-.0028 0-.0041 0-.0014 0-.0028 0-.0041 0-.0014 0-.0028 0-.0041 0-.0014 0-.0028 0-.0041 0-.0014 0-.0028 0-.0041 0-.0014 0-.0028 0-.0041 0-.0014 0-.0028 0-.0041 0-.0014 0-.0028 0-.0041 0-.0014 0-.0028 0-.0041 0-.0014 0-.0028 0-.0041 0-.0014 0-.0028 0-.0041 0-.0014 0-.0027 0-.0041s0-.0027 0-.0041 0-.0027 0-.0041 0-.0027 0-.0041c0-.0013 0-.0027 0-.0041 0-.0013 0-.0027 0-.0041 0-.0013 0-.0027 0-.0041 0-.0013 0-.0027 0-.004 0-.0014 0-.0028 0-.0041 0-.0014 0-.0027 0-.0041s0-.0027 0-.0041 0-.0027 0-.0041c0-.0013 0-.0027 0-.0041 0-.0013 0-.0027 0-.004 0-.0014 0-.0028 0-.0041 0-.0014 0-.0027 0-.0041s0-.0027 0-.0041c0-.0013 0-.0027 0-.0041 0-.0013 0-.0027 0-.004 0-.0014 0-.0028 0-.0041 0-.0014 0-.0027 0-.0041 0-.0013 0-.0027 0-.0041 0-.0013 0-.0027 0-.004 0-.0014 0-.0028 0-.0041 0-.0014 0-.0027 0-.0041 0-.0013 0-.0027 0-.0041 0-.0013 0-.0027 0-.004 0-.0014 0-.0027 0-.0041 0-.0013 0-.0027 0-.0041 0-.0013 0-.0027 0-.004 0-.0014 0-.0027 0-.0041 0-.0013 0-.0027 0-.0041 0-.0013 0-.0027 0-.004 0-.0014 0-.0027 0-.0041 0-.0013 0-.0027 0-.004 0-.0014 0-.0028 0-.0041 0-.0014 0-.0027 0-.0041 0-.0013 0-.0027 0-.004 0-.0014 0-.0027 0-.0041 0-.0013 0-.0027 0-.004 0-.0014 0-.0027 0-.0041s0-.0027 0-.0041c0-.0013 0-.0027 0-.004 0-.0014 0-.0027 0-.0041 0-.0013 0-.0027 0-.004 0-.0014 0-.0027 0-.0041 0-.0013 0-.0027 0-.004 0-.0014 0-.0027 0-.0041 0-.0013 0-.0027 0-.004 0-.0014 0-.0027 0-.0041 0-.0013 0-.0027 0-.004 0-.0014 0-.0027 0-.0041 0-.0013 0-.0027 0-.004 0-.0014 0-.0027 0-.004 0-.0014 0-.0027 0-.0041 0-.0013 0-.0027 0-.004 0-.0014 0-.0027 0-.0041 0-.0013 0-.0027 0-.004 0-.0014 0-.0027 0-.0041 0-.0013 0-.0026 0-.004 0-.0013 0-.0027 0-.004 0-.0014 0-.0027 0-.0041 0-.0013 0-.0027 0-.004s0-.0027 0-.004c0-.0014 0-.0027 0-.0041 0-.0013 0-.0027 0-.004s0-.0027 0-.004c0-.0014 0-.0027 0-.0041 0-.0013 0-.0027 0-.004s0-.0027 0-.004c0-.0014 0-.0027 0-.0041 0-.0013 0-.0026 0-.004 0-.0013 0-.0027 0-.004s0-.0027 0-.004c0-.0014 0-.0027 0-.0041 0-.0013 0-.0026 0-.004 0-.0013 0-.0027 0-.004s0-.0027 0-.004c0-.0014 0-.0027 0-.004 0-.0014 0-.0027 0-.0041 0-.0013 0-.0026 0-.004 0-.0013 0-.0026 0-.004 0-.0013 0-.0027 0-.004s0-.0027 0-.004c0-.0014 0-.0027 0-.004 0-.0014 0-.0027 0-.004 0-.0014 0-.0027 0-.0041 0-.0013 0-.0026 0-.004 0-.0013 0-.0026 0-.004 0-.0013 0-.0026 0-.004 0-.0013 0-.0027 0-.004s0-.0027 0-.004 0-.0027 0-.004 0-.0027 0-.004 0-.0027 0-.004 0-.0027 0-.004c0-.0014 0-.0027 0-.004 0-.0014 0-.0027 0-.004 0-.0014 0-.0027 0-.004 0-.0014 0-.0027 0-.004s0-.0027 0-.004 0-.0027 0-.004 0-.0027 0-.004 0-.0027 0-.004 0-.0027 0-.004 0-.0027 0-.004 0-.0026 0-.004c0-.0013 0-.0026 0-.004 0-.0013 0-.0026 0-.004 0-.0013 0-.0026 0-.0039 0-.0014 0-.0027 0-.004 0-.0014 0-.0027 0-.004s0-.0027 0-.004 0-.0027 0-.004 0-.0026 0-.004c0-.0013 0-.0026 0-.004 0-.0013 0-.0026 0-.0039 0-.0014 0-.0027 0-.004s0-.0027 0-.004 0-.0026 0-.004c0-.0013 0-.0026 0-.0039 0-.0014 0-.0027 0-.004s0-.0027 0-.004 0-.0026 0-.004c0-.0013 0-.0026 0-.0039 0-.0014 0-.0027 0-.004s0-.0027 0-.004 0-.0026 0-.004c0-.0013 0-.0026 0-.0039s0-.0027 0-.004 0-.0026 0-.004c0-.0013 0-.0026 0-.0039s0-.0027 0-.004 0-.0026 0-.0039c0-.0014 0-.0027 0-.004s0-.0026 0-.004c0-.0013 0-.0026 0-.0039s0-.0027 0-.004 0-.0026 0-.0039c0-.0014 0-.0027 0-.004s0-.0026 0-.004c0-.0013 0-.0026 0-.0039s0-.0026 0-.004c0-.0013 0-.0026 0-.0039s0-.0026 0-.004c0-.0013 0-.0026 0-.0039s0-.0026 0-.004c0-.0013 0-.0026 0-.0039s0-.0026 0-.004c0-.0013 0-.0026 0-.0039s0-.0026 0-.0039c0-.0014 0-.0027 0-.004s0-.0026 0-.0039 0-.0027 0-.004 0-.0026 0-.0039 0-.0026 0-.004c0-.0013 0-.0026 0-.0039s0-.0026 0-.0039 0-.0027 0-.004 0-.0026 0-.0039 0-.0026 0-.0039 0-.0027 0-.004 0-.0026 0-.0039 0-.0026 0-.0039 0-.0026 0-.004c0-.0013 0-.0026 0-.0039s0-.0026 0-.0039 0-.0026 0-.0039 0-.0027 0-.004 0-.0026 0-.0039 0-.0026 0-.0039 0-.0026 0-.0039 0-.0026 0-.0039c0-.0014 0-.0027 0-.004s0-.0026 0-.0039 0-.0026 0-.0039 0-.0026 0-.0039 0-.0026 0-.0039 0-.0026 0-.0039c0-.0014 0-.0027 0-.004s0-.0026 0-.0039 0-.0026 0-.0039 0-.0026 0-.0039 0-.0026 0-.0039 0-.0026 0-.0039 0-.0026 0-.0039 0-.0026 0-.0039 0-.0026 0-.0039 0-.0026 0-.0039 0-.0026 0-.0039 0-.0026 0-.0039 0-.0026 0-.0039 0-.0026 0-.0039 0-.0026 0-.0039 0-.0026 0-.0039 0-.0026 0-.0039 0-.0026 0-.0039 0-.0026 0-.0039 0-.0026 0-.0039 0-.0026 0-.0039 0-.0026 0-.0039 0-.0025 0-.0038 0-.0026 0-.0039 0-.0026 0-.0039 0-.0026 0-.0039 0-.0026 0-.0039 0-.0026 0-.0039 0-.0025 0-.0038 0-.0026 0-.0039 0-.0026 0-.0039 0-.0026 0-.0039 0-.0026 0-.0039c0-.0012 0-.0025 0-.0038s0-.0026 0-.0039 0-.0026 0-.0039 0-.0026 0-.0038c0-.0013 0-.0026 0-.0039s0-.0026 0-.0039 0-.0026 0-.0038c0-.0013 0-.0026 0-.0039s0-.0026 0-.0039 0-.0026 0-.0038c0-.0013 0-.0026 0-.0039s0-.0026 0-.0039 0-.0025 0-.0038 0-.0026 0-.0039 0-.0026 0-.0038c0-.0013 0-.0026 0-.0039s0-.0026 0-.0039c0-.0012 0-.0025 0-.0038s0-.0026 0-.0039c0-.0012 0-.0025 0-.0038s0-.0026 0-.0039c0-.0012 0-.0025 0-.0038s0-.0026 0-.0039c0-.0012 0-.0025 0-.0038s0-.0026 0-.0039c0-.0012 0-.0025 0-.0038s0-.0026 0-.0038c0-.0013 0-.0026 0-.0039s0-.0025 0-.0038 0-.0026 0-.0039c0-.0012 0-.0025 0-.0038s0-.0026 0-.0038c0-.0013 0-.0026 0-.0039s0-.0025 0-.0038 0-.0026 0-.0038c0-.0013 0-.0026 0-.0039s0-.0025 0-.0038 0-.0026 0-.0038c0-.0013 0-.0026 0-.0039 0-.0012 0-.0025 0-.0038s0-.0026 0-.0038c0-.0013 0-.0026 0-.0039 0-.0012 0-.0025 0-.0038 0-.0012 0-.0025 0-.0038s0-.0025 0-.0038 0-.0026 0-.0038c0-.0013 0-.0026 0-.0039 0-.0012 0-.0025 0-.0038 0-.0012 0-.0025 0-.0038s0-.0025 0-.0038 0-.0026 0-.0038c0-.0013 0-.0026 0-.0038 0-.0013 0-.0026 0-.0038 0-.0013 0-.0026 0-.0039 0-.0012 0-.0025 0-.0038 0-.0012 0-.0025 0-.0038 0-.0012 0-.0025 0-.0038s0-.0025 0-.0038 0-.0025 0-.0038 0-.0025 0-.0038 0-.0025 0-.0038 0-.0025 0-.0038 0-.0025 0-.0038 0-.0025 0-.0038 0-.0025 0-.0038 0-.0025 0-.0038 0-.0025 0-.0038c0-.0012 0-.0025 0-.0038 0-.0012 0-.0025 0-.0038 0-.0012 0-.0025 0-.0038 0-.0012 0-.0025 0-.0037 0-.0013 0-.0026 0-.0038 0-.0013 0-.0026 0-.0038 0-.0013 0-.0025 0-.0038s0-.0025 0-.0038c0-.0012 0-.0025 0-.0038 0-.0012 0-.0025 0-.0038 0-.0012 0-.0025 0-.0037 0-.0013 0-.0026 0-.0038 0-.0013 0-.0025 0-.0038 0-.0012 0-.0025 0-.0038 0-.0012 0-.0025 0-.0037 0-.0013 0-.0026 0-.0038 0-.0013 0-.0025 0-.0038 0-.0012 0-.0025 0-.0038 0-.0012 0-.0025 0-.0037 0-.0013 0-.0025 0-.0038s0-.0025 0-.0038c0-.0012 0-.0025 0-.0037 0-.0013 0-.0025 0-.0038s0-.0025 0-.0038c0-.0012 0-.0025 0-.0037 0-.0013 0-.0025 0-.0038 0-.0012 0-.0025 0-.0037 0-.0013 0-.0026 0-.0038 0-.0013 0-.0025 0-.0038 0-.0012 0-.0025 0-.0037 0-.0013 0-.0025 0-.0038 0-.0012 0-.0025 0-.0037 0-.0013 0-.0025 0-.0038 0-.0012 0-.0025 0-.0037 0-.0013 0-.0025 0-.0038 0-.0012 0-.0025 0-.0037 0-.0013 0-.0025 0-.0038 0-.0012 0-.0025 0-.0037 0-.0013 0-.0025 0-.0038 0-.0012 0-.0025 0-.0037 0-.0013 0-.0025 0-.0037 0-.0013 0-.0025 0-.0038 0-.0012 0-.0025 0-.0037 0-.0013 0-.0025 0-.0038 0-.0012 0-.0025 0-.0037s0-.0025 0-.0037c0-.0013 0-.0025 0-.0038 0-.0012 0-.0025 0-.0037s0-.0025 0-.0037c0-.0013 0-.0025 0-.0038 0-.0012 0-.0024 0-.0037 0-.0012 0-.0025 0-.0037 0-.0013 0-.0025 0-.0037 0-.0013 0-.0025 0-.0038 0-.0012 0-.0024 0-.0037 0-.0012 0-.0025 0-.0037 0-.0013 0-.0025 0-.0037 0-.0013 0-.0025 0-.0037 0-.0013 0-.0025 0-.0038 0-.0012 0-.0024 0-.0037 0-.0012 0-.0025 0-.0037s0-.0025 0-.0037 0-.0025 0-.0037c0-.0013 0-.0025 0-.0037 0-.0013 0-.0025 0-.0037 0-.0013 0-.0025 0-.0038 0-.0012 0-.0024 0-.0037 0-.0012 0-.0024 0-.0037 0-.0012 0-.0024 0-.0037 0-.0012 0-.0024 0-.0037 0-.0012 0-.0024 0-.0037 0-.0012 0-.0024 0-.0037 0-.0012 0-.0024 0-.0037 0-.0012 0-.0024 0-.0037 0-.0012 0-.0024 0-.0037 0-.0012 0-.0024 0-.0037 0-.0012 0-.0024 0-.0037 0-.0012 0-.0024 0-.0036 0-.0013 0-.0025 0-.0037 0-.0013 0-.0025 0-.0037 0-.0013 0-.0025 0-.0037s0-.0025 0-.0037 0-.0025 0-.0037 0-.0024 0-.0037c0-.0012 0-.0024 0-.0037 0-.0012 0-.0024 0-.0036 0-.0013 0-.0025 0-.0037s0-.0025 0-.0037 0-.0024 0-.0037c0-.0012 0-.0024 0-.0036 0-.0013 0-.0025 0-.0037s0-.0025 0-.0037 0-.0024 0-.0037c0-.0012 0-.0024 0-.0036 0-.0013 0-.0025 0-.0037s0-.0024 0-.0037c0-.0012 0-.0024 0-.0036 0-.0013 0-.0025 0-.0037s0-.0024 0-.0037c0-.0012 0-.0024 0-.0036s0-.0025 0-.0037 0-.0024 0-.0036c0-.0013 0-.0025 0-.0037s0-.0024 0-.0037c0-.0012 0-.0024 0-.0036s0-.0025 0-.0037 0-.0024 0-.0036 0-.0025 0-.0037 0-.0024 0-.0036 0-.0025 0-.0037 0-.0024 0-.0036 0-.0024 0-.0037c0-.0012 0-.0024 0-.0036s0-.0024 0-.0036c0-.0013 0-.0025 0-.0037s0-.0024 0-.0036 0-.0025 0-.0037 0-.0024 0-.0036 0-.0024 0-.0036 0-.0025 0-.0037 0-.0024 0-.0036 0-.0024 0-.0036 0-.0025 0-.0037 0-.0024 0-.0036 0-.0024 0-.0036 0-.0024 0-.0036c0-.0013 0-.0025 0-.0037s0-.0024 0-.0036 0-.0024 0-.0036 0-.0024 0-.0036 0-.0024 0-.0037c0-.0012 0-.0024 0-.0036s0-.0024 0-.0036 0-.0024 0-.0036 0-.0024 0-.0036 0-.0024 0-.0036 0-.0024 0-.0036 0-.0024 0-.0036 0-.0024 0-.0036 0-.0024 0-.0036c0-.0013 0-.0025 0-.0037s0-.0024 0-.0036 0-.0024 0-.0036 0-.0024 0-.0036 0-.0024 0-.0036 0-.0024 0-.0036c0-.0011 0-.0023 0-.0035s0-.0024 0-.0036 0-.0024 0-.0036 0-.0024 0-.0036 0-.0024 0-.0036 0-.0024 0-.0036 0-.0024 0-.0036 0-.0024 0-.0036h-1v.0036.0036.0036.0036.0036.0036.0036.0035.0036.0036.0036.0036.0036.0037.0036.0036.0036.0036.0036.0036.0036.0036.0036.0037.0036.0036.0036.0037.0036.0036.0036.0037.0036.0036.0037.0036.0036.0037.0036.0037.0036.0036.0037.0036.0037.0036.0037.0036.0037.0036.0037.0037.0036.0037.0036.0037.0037.0036.0037.0037.0036.0037.0037.0037.0036.0037.0037.0037.0036.0037.0037.0037.0037.0037.0037.0037.0036.0037.0037.0037.0037.0037.0037.0037.0037.0037.0037.0037.0038.0037.0037.0037.0037.0037.0037.0038.0037.0037.0037.0037.0038.0037.0037.0037.0038.0037.0037.0038.0037.0037.0038.0037.0038.0037.0037.0038.0037.0038.0037.0038.0037.0038.0037.0038.0037.0038.0038.0037.0038.0037.0038.0038.0037.0038.0038.0037.0038.0038.0038.0037.0038.0038.0038.0037.0038.0038.0038.0038.0038.0038.0037.0038.0038.0038.0038.0038.0038.0038.0038.0038.0038.0038.0038.0038.0038.0038.0038.0039.0038.0038.0038.0038.0038.0038.0039.0038.0038.0038.0038.0039.0038.0038.0039.0038.0038.0039.0038.0038.0039.0038.0038.0039.0038.0039.0038.0038.0039.0038.0039.0038.0039.0038.0039.0038.0039.0039.0038.0039.0038.0039.0039.0038.0039.0039.0038.0039.0039.0038.0039.0039.0038.0039.0039.0039.0039.0038.0039.0039.0039.0039.0039.0038.0039.0039.0039.0039.0039.0039.0039.0039.0039.0039.0039.0039.0039.0039.0039.0039.0039.0039.0039.0039.0039.004.0039.0039.0039.0039.0039.004.0039.0039.0039.0039.004.0039.0039.0039.004.0039.0039.004.0039.0039.004.0039.0039.004.0039.004.0039.004.0039.0039.004.0039.004.0039.004.0039.004.0039.004.004.0039.004.0039.004.004.0039.004.0039.004.004.0039.004.004.004.0039.004.004.004.0039.004.004.004.0039.004.004.004.004.004.004.0039.004.004.004.004.004.004.004.004.004.004.004.004.004.004.004.004.004.004.004.004.004.004.0041.004.004.004.004.004.004.0041.004.004.004.004.0041.004.004.004.0041.004.004.0041.004.004.0041.004.004.0041.004.004.0041.004.0041.004.0041.004.004.0041.004.0041.004.0041.004.0041.004.0041.004.0041.0041.004.0041.004.0041.0041.004.0041.004.0041.0041.004.0041.0041.004.0041.0041.0041.004.0041.0041.0041.004.0041.0041.0041.0041.004.0041.0041.0041.0041.0041.004.0041.0041.0041.0041.0041.0041.0041.0041.0041.0041.0041.0041.0041.0041.0041.0041.0041.0041.0041.0041.0041.0041.0041.0041.0041.0041.0041.0041.0042.0041.0041.0041.0041.0041.0042.0041.0041.0041.0041.0042.0041.0041.0041.0042.0041.0041.0041.0042.0041.0041.0042.0041.0041.0042.0041.0041.0042.0041.0041.0042.0041.0042.0041.0041.0042.0041.0042.0041.0042.0041.0042.0041.0042.0041.0042.0041.0042.0041.0042.0041.0042.0041.0042.0042.0041.0042zm2.5-4.49676h4v-1h-4zm6.5 2.49946v.0036.0036.0036.0036.0036.0036.0036.0035.0036.0036.0036.0036.0036.0037.0036.0036.0036.0036.0036.0036.0036.0036.0036.0037.0036.0036.0036.0037.0036.0036.0036.0037.0036.0036.0037.0036.0036.0037.0036.0037.0036.0036.0037.0036.0037.0036.0037.0036.0037.0036.0037.0037.0036.0037.0036.0037.0037.0036.0037.0037.0036.0037.0037.0037.0036.0037.0037.0037.0036.0037.0037.0037.0037.0037.0037.0037.0036.0037.0037.0037.0037.0037.0037.0037.0037.0037.0037.0037.0038.0037.0037.0037.0037.0037.0037.0038.0037.0037.0037.0037.0038.0037.0037.0037.0038.0037.0037.0038.0037.0037.0038.0037.0038.0037.0037.0038.0037.0038.0037.0038.0037.0038.0037.0038.0037.0038.0038.0037.0038.0037.0038.0038.0037.0038.0038.0037.0038.0038.0038.0037.0038.0038.0038.0037.0038.0038.0038.0038.0038.0038.0037.0038.0038.0038.0038.0038.0038.0038.0038.0038.0038.0038.0038.0038.0038.0038.0038.0039.0038.0038.0038.0038.0038.0038.0039.0038.0038.0038.0038.0039.0038.0038.0039.0038.0038.0039.0038.0038.0039.0038.0038.0039.0038.0039.0038.0038.0039.0038.0039.0038.0039.0038.0039.0038.0039.0039.0038.0039.0038.0039.0039.0038.0039.0039.0038.0039.0039.0038.0039.0039.0038.0039.0039.0039.0039.0038.0039.0039.0039.0039.0039.0038.0039.0039.0039.0039.0039.0039.0039.0039.0039.0039.0039.0039.0039.0039.0039.0039.0039.0039.0039.0039.0039.004.0039.0039.0039.0039.0039.004.0039.0039.0039.0039.004.0039.0039.0039.004.0039.0039.004.0039.0039.004.0039.0039.004.0039.004.0039.004.0039.0039.004.0039.004.0039.004.0039.004.0039.004.004.0039.004.0039.004.004.0039.004.0039.004.004.0039.004.004.004.0039.004.004.004.0039.004.004.004.0039.004.004.004.004.004.004.0039.004.004.004.004.004.004.004.004.004.004.004.004.004.004.004.004.004.004.004.004.004.004.0041.004.004.004.004.004.004.0041.004.004.004.004.0041.004.004.004.0041.004.004.0041.004.004.0041.004.004.0041.004.004.0041.004.0041.004.0041.004.004.0041.004.0041.004.0041.004.0041.004.0041.004.0041.0041.004.0041.004.0041.0041.004.0041.004.0041.0041.004.0041.0041.004.0041.0041.0041.004.0041.0041.0041.004.0041.0041.0041.0041.004.0041.0041.0041.0041.0041.004.0041.0041.0041.0041.0041.0041.0041.0041.0041.0041.0041.0041.0041.0041.0041.0041.0041.0041.0041.0041.0041.0041.0041.0041.0041.0041.0041.0041.0042.0041.0041.0041.0041.0041.0042.0041.0041.0041.0041.0042.0041.0041.0041.0042.0041.0041.0041.0042.0041.0041.0042.0041.0041.0042.0041.0041.0042.0041.0041.0042.0041.0042.0041.0041.0042.0041.0042.0041.0042.0041.0042.0041.0042.0041.0042.0041.0042.0041.0042.0041.0042.0041.0042.0042.0041.0042h1c0-.0014 0-.0028 0-.0042s0-.0028 0-.0041c0-.0014 0-.0028 0-.0042s0-.0028 0-.0042c0-.0013 0-.0027 0-.0041s0-.0028 0-.0042 0-.0027 0-.0041 0-.0028 0-.0042 0-.0027 0-.0041 0-.0028 0-.0042 0-.0028 0-.0041c0-.0014 0-.0028 0-.0042s0-.0028 0-.0041c0-.0014 0-.0028 0-.0042s0-.0028 0-.0041c0-.0014 0-.0028 0-.0042s0-.0027 0-.0041 0-.0028 0-.0042 0-.0027 0-.0041 0-.0028 0-.0042c0-.0013 0-.0027 0-.0041s0-.0028 0-.0042c0-.0013 0-.0027 0-.0041s0-.0028 0-.0041c0-.0014 0-.0028 0-.0042s0-.0027 0-.0041 0-.0028 0-.0042c0-.0013 0-.0027 0-.0041s0-.0028 0-.0041c0-.0014 0-.0028 0-.0042 0-.0013 0-.0027 0-.0041s0-.0028 0-.0041c0-.0014 0-.0028 0-.0042s0-.0027 0-.0041 0-.0028 0-.0041c0-.0014 0-.0028 0-.0042 0-.0013 0-.0027 0-.0041s0-.0028 0-.0041c0-.0014 0-.0028 0-.0042 0-.0013 0-.0027 0-.0041s0-.0027 0-.0041 0-.0028 0-.0041c0-.0014 0-.0028 0-.0042 0-.0013 0-.0027 0-.0041s0-.0027 0-.0041 0-.0028 0-.0041c0-.0014 0-.0028 0-.0042 0-.0013 0-.0027 0-.0041s0-.0027 0-.0041 0-.0028 0-.0041c0-.0014 0-.0028 0-.0041 0-.0014 0-.0028 0-.0042 0-.0013 0-.0027 0-.0041 0-.0013 0-.0027 0-.0041s0-.0027 0-.0041 0-.0028 0-.0041c0-.0014 0-.0028 0-.0041 0-.0014 0-.0028 0-.0042 0-.0013 0-.0027 0-.0041 0-.0013 0-.0027 0-.0041 0-.0013 0-.0027 0-.0041s0-.0027 0-.0041 0-.0027 0-.0041 0-.0027 0-.0041 0-.0027 0-.0041 0-.0028 0-.0041c0-.0014 0-.0028 0-.0041 0-.0014 0-.0028 0-.0041 0-.0014 0-.0028 0-.0041 0-.0014 0-.0028 0-.0041 0-.0014 0-.0028 0-.0041 0-.0014 0-.0028 0-.0041 0-.0014 0-.0028 0-.0041 0-.0014 0-.0028 0-.0041 0-.0014 0-.0028 0-.0041 0-.0014 0-.0028 0-.0041 0-.0014 0-.0028 0-.0041 0-.0014 0-.0028 0-.0041 0-.0014 0-.0028 0-.0041 0-.0014 0-.0027 0-.0041s0-.0027 0-.0041 0-.0027 0-.0041 0-.0027 0-.0041c0-.0013 0-.0027 0-.0041 0-.0013 0-.0027 0-.0041 0-.0013 0-.0027 0-.0041 0-.0013 0-.0027 0-.004 0-.0014 0-.0028 0-.0041 0-.0014 0-.0027 0-.0041s0-.0027 0-.0041 0-.0027 0-.0041c0-.0013 0-.0027 0-.0041 0-.0013 0-.0027 0-.004 0-.0014 0-.0028 0-.0041 0-.0014 0-.0027 0-.0041s0-.0027 0-.0041c0-.0013 0-.0027 0-.0041 0-.0013 0-.0027 0-.004 0-.0014 0-.0028 0-.0041 0-.0014 0-.0027 0-.0041 0-.0013 0-.0027 0-.0041 0-.0013 0-.0027 0-.004 0-.0014 0-.0028 0-.0041 0-.0014 0-.0027 0-.0041 0-.0013 0-.0027 0-.0041 0-.0013 0-.0027 0-.004 0-.0014 0-.0027 0-.0041 0-.0013 0-.0027 0-.0041 0-.0013 0-.0027 0-.004 0-.0014 0-.0027 0-.0041 0-.0013 0-.0027 0-.0041 0-.0013 0-.0027 0-.004 0-.0014 0-.0027 0-.0041 0-.0013 0-.0027 0-.004 0-.0014 0-.0028 0-.0041 0-.0014 0-.0027 0-.0041 0-.0013 0-.0027 0-.004 0-.0014 0-.0027 0-.0041 0-.0013 0-.0027 0-.004 0-.0014 0-.0027 0-.0041s0-.0027 0-.0041c0-.0013 0-.0027 0-.004 0-.0014 0-.0027 0-.0041 0-.0013 0-.0027 0-.004 0-.0014 0-.0027 0-.0041 0-.0013 0-.0027 0-.004 0-.0014 0-.0027 0-.0041 0-.0013 0-.0027 0-.004 0-.0014 0-.0027 0-.0041 0-.0013 0-.0027 0-.004 0-.0014 0-.0027 0-.0041 0-.0013 0-.0027 0-.004 0-.0014 0-.0027 0-.004 0-.0014 0-.0027 0-.0041 0-.0013 0-.0027 0-.004 0-.0014 0-.0027 0-.0041 0-.0013 0-.0027 0-.004 0-.0014 0-.0027 0-.0041 0-.0013 0-.0026 0-.004 0-.0013 0-.0027 0-.004 0-.0014 0-.0027 0-.0041 0-.0013 0-.0027 0-.004s0-.0027 0-.004c0-.0014 0-.0027 0-.0041 0-.0013 0-.0027 0-.004s0-.0027 0-.004c0-.0014 0-.0027 0-.0041 0-.0013 0-.0027 0-.004s0-.0027 0-.004c0-.0014 0-.0027 0-.0041 0-.0013 0-.0026 0-.004 0-.0013 0-.0027 0-.004s0-.0027 0-.004c0-.0014 0-.0027 0-.0041 0-.0013 0-.0026 0-.004 0-.0013 0-.0027 0-.004s0-.0027 0-.004c0-.0014 0-.0027 0-.004 0-.0014 0-.0027 0-.0041 0-.0013 0-.0026 0-.004 0-.0013 0-.0026 0-.004 0-.0013 0-.0027 0-.004s0-.0027 0-.004c0-.0014 0-.0027 0-.004 0-.0014 0-.0027 0-.004 0-.0014 0-.0027 0-.0041 0-.0013 0-.0026 0-.004 0-.0013 0-.0026 0-.004 0-.0013 0-.0026 0-.004 0-.0013 0-.0027 0-.004s0-.0027 0-.004 0-.0027 0-.004 0-.0027 0-.004 0-.0027 0-.004 0-.0027 0-.004c0-.0014 0-.0027 0-.004 0-.0014 0-.0027 0-.004 0-.0014 0-.0027 0-.004 0-.0014 0-.0027 0-.004s0-.0027 0-.004 0-.0027 0-.004 0-.0027 0-.004 0-.0027 0-.004 0-.0027 0-.004 0-.0027 0-.004 0-.0026 0-.004c0-.0013 0-.0026 0-.004 0-.0013 0-.0026 0-.004 0-.0013 0-.0026 0-.0039 0-.0014 0-.0027 0-.004 0-.0014 0-.0027 0-.004s0-.0027 0-.004 0-.0027 0-.004 0-.0026 0-.004c0-.0013 0-.0026 0-.004 0-.0013 0-.0026 0-.0039 0-.0014 0-.0027 0-.004s0-.0027 0-.004 0-.0026 0-.004c0-.0013 0-.0026 0-.0039 0-.0014 0-.0027 0-.004s0-.0027 0-.004 0-.0026 0-.004c0-.0013 0-.0026 0-.0039 0-.0014 0-.0027 0-.004s0-.0027 0-.004 0-.0026 0-.004c0-.0013 0-.0026 0-.0039s0-.0027 0-.004 0-.0026 0-.004c0-.0013 0-.0026 0-.0039s0-.0027 0-.004 0-.0026 0-.0039c0-.0014 0-.0027 0-.004s0-.0026 0-.004c0-.0013 0-.0026 0-.0039s0-.0027 0-.004 0-.0026 0-.0039c0-.0014 0-.0027 0-.004s0-.0026 0-.004c0-.0013 0-.0026 0-.0039s0-.0026 0-.004c0-.0013 0-.0026 0-.0039s0-.0026 0-.004c0-.0013 0-.0026 0-.0039s0-.0026 0-.004c0-.0013 0-.0026 0-.0039s0-.0026 0-.004c0-.0013 0-.0026 0-.0039s0-.0026 0-.0039c0-.0014 0-.0027 0-.004s0-.0026 0-.0039 0-.0027 0-.004 0-.0026 0-.0039 0-.0026 0-.004c0-.0013 0-.0026 0-.0039s0-.0026 0-.0039 0-.0027 0-.004 0-.0026 0-.0039 0-.0026 0-.0039 0-.0027 0-.004 0-.0026 0-.0039 0-.0026 0-.0039 0-.0026 0-.004c0-.0013 0-.0026 0-.0039s0-.0026 0-.0039 0-.0026 0-.0039 0-.0027 0-.004 0-.0026 0-.0039 0-.0026 0-.0039 0-.0026 0-.0039 0-.0026 0-.0039c0-.0014 0-.0027 0-.004s0-.0026 0-.0039 0-.0026 0-.0039 0-.0026 0-.0039 0-.0026 0-.0039 0-.0026 0-.0039c0-.0014 0-.0027 0-.004s0-.0026 0-.0039 0-.0026 0-.0039 0-.0026 0-.0039 0-.0026 0-.0039 0-.0026 0-.0039 0-.0026 0-.0039 0-.0026 0-.0039 0-.0026 0-.0039 0-.0026 0-.0039 0-.0026 0-.0039 0-.0026 0-.0039 0-.0026 0-.0039 0-.0026 0-.0039 0-.0026 0-.0039 0-.0026 0-.0039 0-.0026 0-.0039 0-.0026 0-.0039 0-.0026 0-.0039 0-.0026 0-.0039 0-.0026 0-.0039 0-.0026 0-.0039 0-.0025 0-.0038 0-.0026 0-.0039 0-.0026 0-.0039 0-.0026 0-.0039 0-.0026 0-.0039 0-.0026 0-.0039 0-.0025 0-.0038 0-.0026 0-.0039 0-.0026 0-.0039 0-.0026 0-.0039 0-.0026 0-.0039c0-.0012 0-.0025 0-.0038s0-.0026 0-.0039 0-.0026 0-.0039 0-.0026 0-.0038c0-.0013 0-.0026 0-.0039s0-.0026 0-.0039 0-.0026 0-.0038c0-.0013 0-.0026 0-.0039s0-.0026 0-.0039 0-.0026 0-.0038c0-.0013 0-.0026 0-.0039s0-.0026 0-.0039 0-.0025 0-.0038 0-.0026 0-.0039 0-.0026 0-.0038c0-.0013 0-.0026 0-.0039s0-.0026 0-.0039c0-.0012 0-.0025 0-.0038s0-.0026 0-.0039c0-.0012 0-.0025 0-.0038s0-.0026 0-.0039c0-.0012 0-.0025 0-.0038s0-.0026 0-.0039c0-.0012 0-.0025 0-.0038s0-.0026 0-.0039c0-.0012 0-.0025 0-.0038s0-.0026 0-.0038c0-.0013 0-.0026 0-.0039s0-.0025 0-.0038 0-.0026 0-.0039c0-.0012 0-.0025 0-.0038s0-.0026 0-.0038c0-.0013 0-.0026 0-.0039s0-.0025 0-.0038 0-.0026 0-.0038c0-.0013 0-.0026 0-.0039s0-.0025 0-.0038 0-.0026 0-.0038c0-.0013 0-.0026 0-.0039 0-.0012 0-.0025 0-.0038s0-.0026 0-.0038c0-.0013 0-.0026 0-.0039 0-.0012 0-.0025 0-.0038 0-.0012 0-.0025 0-.0038s0-.0025 0-.0038 0-.0026 0-.0038c0-.0013 0-.0026 0-.0039 0-.0012 0-.0025 0-.0038 0-.0012 0-.0025 0-.0038s0-.0025 0-.0038 0-.0026 0-.0038c0-.0013 0-.0026 0-.0038 0-.0013 0-.0026 0-.0038 0-.0013 0-.0026 0-.0039 0-.0012 0-.0025 0-.0038 0-.0012 0-.0025 0-.0038 0-.0012 0-.0025 0-.0038s0-.0025 0-.0038 0-.0025 0-.0038 0-.0025 0-.0038 0-.0025 0-.0038 0-.0025 0-.0038 0-.0025 0-.0038 0-.0025 0-.0038 0-.0025 0-.0038 0-.0025 0-.0038 0-.0025 0-.0038c0-.0012 0-.0025 0-.0038 0-.0012 0-.0025 0-.0038 0-.0012 0-.0025 0-.0038 0-.0012 0-.0025 0-.0037 0-.0013 0-.0026 0-.0038 0-.0013 0-.0026 0-.0038 0-.0013 0-.0025 0-.0038s0-.0025 0-.0038 0-.0025 0-.0038c0-.0012 0-.0025 0-.0038 0-.0012 0-.0025 0-.0037 0-.0013 0-.0026 0-.0038 0-.0013 0-.0025 0-.0038 0-.0012 0-.0025 0-.0038 0-.0012 0-.0025 0-.0037 0-.0013 0-.0026 0-.0038 0-.0013 0-.0025 0-.0038 0-.0012 0-.0025 0-.0038 0-.0012 0-.0025 0-.0037 0-.0013 0-.0025 0-.0038s0-.0025 0-.0038c0-.0012 0-.0025 0-.0037 0-.0013 0-.0025 0-.0038s0-.0025 0-.0038c0-.0012 0-.0025 0-.0037 0-.0013 0-.0025 0-.0038 0-.0012 0-.0025 0-.0037 0-.0013 0-.0026 0-.0038 0-.0013 0-.0025 0-.0038 0-.0012 0-.0025 0-.0037 0-.0013 0-.0025 0-.0038 0-.0012 0-.0025 0-.0037 0-.0013 0-.0025 0-.0038 0-.0012 0-.0025 0-.0037 0-.0013 0-.0025 0-.0038 0-.0012 0-.0025 0-.0037 0-.0013 0-.0025 0-.0038 0-.0012 0-.0025 0-.0037 0-.0013 0-.0025 0-.0038 0-.0012 0-.0025 0-.0037 0-.0013 0-.0025 0-.0037 0-.0013 0-.0025 0-.0038 0-.0012 0-.0025 0-.0037 0-.0013 0-.0025 0-.0038 0-.0012 0-.0025 0-.0037s0-.0025 0-.0037c0-.0013 0-.0025 0-.0038 0-.0012 0-.0025 0-.0037s0-.0025 0-.0037c0-.0013 0-.0025 0-.0038 0-.0012 0-.0024 0-.0037 0-.0012 0-.0025 0-.0037 0-.0013 0-.0025 0-.0037 0-.0013 0-.0025 0-.0038 0-.0012 0-.0024 0-.0037 0-.0012 0-.0025 0-.0037 0-.0013 0-.0025 0-.0037 0-.0013 0-.0025 0-.0037 0-.0013 0-.0025 0-.0038 0-.0012 0-.0024 0-.0037 0-.0012 0-.0025 0-.0037s0-.0025 0-.0037 0-.0025 0-.0037c0-.0013 0-.0025 0-.0037 0-.0013 0-.0025 0-.0037 0-.0013 0-.0025 0-.0038 0-.0012 0-.0024 0-.0037 0-.0012 0-.0024 0-.0037 0-.0012 0-.0024 0-.0037 0-.0012 0-.0024 0-.0037 0-.0012 0-.0024 0-.0037 0-.0012 0-.0024 0-.0037 0-.0012 0-.0024 0-.0037 0-.0012 0-.0024 0-.0037 0-.0012 0-.0024 0-.0037 0-.0012 0-.0024 0-.0037 0-.0012 0-.0024 0-.0037 0-.0012 0-.0024 0-.0036 0-.0013 0-.0025 0-.0037 0-.0013 0-.0025 0-.0037 0-.0013 0-.0025 0-.0037s0-.0025 0-.0037 0-.0025 0-.0037 0-.0024 0-.0037c0-.0012 0-.0024 0-.0037 0-.0012 0-.0024 0-.0036 0-.0013 0-.0025 0-.0037s0-.0025 0-.0037 0-.0024 0-.0037c0-.0012 0-.0024 0-.0036 0-.0013 0-.0025 0-.0037s0-.0025 0-.0037 0-.0024 0-.0037c0-.0012 0-.0024 0-.0036 0-.0013 0-.0025 0-.0037s0-.0024 0-.0037c0-.0012 0-.0024 0-.0036 0-.0013 0-.0025 0-.0037s0-.0024 0-.0037c0-.0012 0-.0024 0-.0036s0-.0025 0-.0037 0-.0024 0-.0036c0-.0013 0-.0025 0-.0037s0-.0024 0-.0037c0-.0012 0-.0024 0-.0036s0-.0025 0-.0037 0-.0024 0-.0036 0-.0025 0-.0037 0-.0024 0-.0036 0-.0025 0-.0037 0-.0024 0-.0036 0-.0024 0-.0037c0-.0012 0-.0024 0-.0036s0-.0024 0-.0036c0-.0013 0-.0025 0-.0037s0-.0024 0-.0036 0-.0025 0-.0037 0-.0024 0-.0036 0-.0024 0-.0036 0-.0025 0-.0037 0-.0024 0-.0036 0-.0024 0-.0036 0-.0025 0-.0037 0-.0024 0-.0036 0-.0024 0-.0036 0-.0024 0-.0036c0-.0013 0-.0025 0-.0037s0-.0024 0-.0036 0-.0024 0-.0036 0-.0024 0-.0036 0-.0024 0-.0037c0-.0012 0-.0024 0-.0036s0-.0024 0-.0036 0-.0024 0-.0036 0-.0024 0-.0036 0-.0024 0-.0036 0-.0024 0-.0036 0-.0024 0-.0036 0-.0024 0-.0036 0-.0024 0-.0036c0-.0013 0-.0025 0-.0037s0-.0024 0-.0036 0-.0024 0-.0036 0-.0024 0-.0036 0-.0024 0-.0036 0-.0024 0-.0036c0-.0011 0-.0023 0-.0035s0-.0024 0-.0036 0-.0024 0-.0036 0-.0024 0-.0036 0-.0024 0-.0036 0-.0024 0-.0036 0-.0024 0-.0036 0-.0024 0-.0036zm-2.5-2.49946c1.38082 0 2.5 1.11886 2.5 2.49946h1c0-1.9331-1.56711-3.49946-3.5-3.49946zm-6.5 2.49946c0-1.3806 1.11918-2.49946 2.5-2.49946v-1c-1.93289 0-3.5 1.56636-3.5 3.49946zm13 .5064v1.5h1v-1.5zm.5 1h-2.5v1h2.5zm-2.5-3c1.1046 0 2 .8954 2 2h1c0-1.6569-1.3431-3-3-3zm-.5-3c-.8284 0-1.5-.67157-1.5-1.5h-1c0 1.38071 1.1193 2.5 2.5 2.5zm1.5-1.5c0 .82843-.6716 1.5-1.5 1.5v1c1.3807 0 2.5-1.11929 2.5-2.5zm-1.5-1.5c.8284 0 1.5.67157 1.5 1.5h1c0-1.38071-1.1193-2.5-2.5-2.5zm0-1c-1.3807 0-2.5 1.11929-2.5 2.5h1c0-.82843.6716-1.5 1.5-1.5z" fill="#000"/></svg>